# 3ds Max Wavefront OBJ Exporter v0.97b - (c)2007 guruware
# File Created: 18.12.2016 16:53:51

mtllib Lighthouse.mtl

#
# object Cylinder001
#

v  56.4129 1.2157 0.0866
v  52.9959 1.2157 -19.2920
v  52.9959 9.3818 -19.2920
v  56.4129 9.3818 0.0866
v  43.1571 1.2157 -36.3333
v  43.1571 9.0226 -36.3333
v  28.0832 1.2157 -48.9818
v  28.0832 9.0226 -48.9818
v  9.5923 1.2157 -55.7120
v  9.5923 9.0226 -55.7120
v  -10.0853 1.2157 -55.7119
v  -10.0853 9.0226 -55.7119
v  -28.5761 1.2157 -48.9818
v  -28.5761 9.0226 -48.9818
v  -43.6500 1.2157 -36.3333
v  -43.6500 9.0226 -36.3333
v  -53.4888 1.2157 -19.2920
v  -53.4888 9.3818 -19.2920
v  -56.9058 1.2157 0.0866
v  -56.9058 9.3818 0.0866
v  -53.4888 1.2157 19.4653
v  -53.4888 9.3818 19.4653
v  -43.6500 1.2157 36.5065
v  -43.6500 9.3818 36.5065
v  -28.5762 1.2157 49.1551
v  -28.5762 9.3818 49.1551
v  -10.0853 1.2157 55.8852
v  -10.0853 9.3818 55.8852
v  9.5923 1.2157 55.8852
v  9.5923 9.3818 55.8852
v  28.0832 1.2157 49.1551
v  28.0832 9.3818 49.1551
v  43.1571 1.2157 36.5066
v  43.1571 9.3818 36.5066
v  52.9959 1.2157 19.4653
v  52.9959 9.3818 19.4653
v  52.9959 17.1886 -19.2920
v  56.4129 17.1886 0.0866
v  43.1571 17.1886 -36.3333
v  28.0832 17.1886 -48.9818
v  9.5923 17.1886 -55.7120
v  -10.0853 17.1886 -55.7119
v  -28.5761 17.1886 -48.9818
v  -43.6500 17.1886 -36.3333
v  -53.4888 17.1886 -19.2920
v  -56.9058 17.1886 0.0866
v  -53.4888 17.1886 19.4653
v  -43.6500 17.1886 36.5065
v  -28.5762 17.1886 49.1551
v  -10.0853 17.1886 55.8852
v  9.5923 17.1886 55.8852
v  28.0832 17.1886 49.1551
v  43.1571 17.1886 36.5066
v  52.9959 17.1886 19.4653
v  52.9959 24.9955 -19.2920
v  56.4129 24.9955 0.0866
v  43.1571 24.9955 -36.3333
v  28.0832 24.9955 -48.9818
v  9.5923 24.9955 -55.7120
v  -10.0853 24.9955 -55.7119
v  -28.5761 24.9955 -48.9818
v  -43.6500 24.9955 -36.3333
v  -53.4888 24.9955 -19.2920
v  -56.9058 24.9955 0.0866
v  -53.4888 24.9955 19.4653
v  -43.6500 24.9955 36.5065
v  -28.5762 24.9955 49.1551
v  -10.0853 24.9955 55.8852
v  9.5923 24.9955 55.8852
v  28.0832 24.9955 49.1551
v  43.1571 24.9955 36.5066
v  52.9959 24.9955 19.4653
v  52.9959 32.8023 -19.2920
v  56.4129 32.8023 0.0866
v  43.1571 32.8023 -36.3333
v  28.0832 32.5726 -48.9818
v  9.5923 32.5726 -55.7120
v  -10.0853 32.5726 -55.7119
v  -28.5761 31.5866 -48.9818
v  -43.6500 32.8023 -36.3333
v  -53.4888 32.8023 -19.2920
v  -56.9058 32.8023 0.0866
v  -53.4888 32.8023 19.4653
v  -43.6500 32.8023 36.5065
v  -28.5762 32.8023 49.1551
v  -10.0853 32.8023 55.8852
v  9.5923 32.8023 55.8852
v  28.0832 32.8023 49.1551
v  43.1571 32.8023 36.5066
v  52.9959 32.8023 19.4653
v  52.9959 40.3794 -19.2920
v  56.4129 40.2499 0.0866
v  43.1571 40.3794 -36.3333
v  28.0832 40.3794 -48.9818
v  9.5923 40.3794 -55.7120
v  -10.0853 39.3934 -55.7119
v  -28.5761 39.3934 -48.9818
v  -43.6500 39.3934 -36.3333
v  -53.4888 39.3934 -19.2920
v  -56.9058 39.0342 0.0866
v  -53.4888 40.2499 19.4653
v  -43.6500 40.2499 36.5065
v  -28.5762 40.6091 49.1551
v  -10.0853 40.6091 55.8852
v  9.5923 40.6091 55.8852
v  28.0832 40.2499 49.1551
v  43.1571 40.2499 36.5066
v  52.9959 40.2499 19.4653
# 108 vertices

vn 1.0000 0.0000 0.0000
vn 0.9397 0.0000 -0.3420
vn 0.7660 0.0000 -0.6428
vn 0.5000 0.0000 -0.8660
vn 0.1736 0.0000 -0.9848
vn -0.1736 0.0000 -0.9848
vn -0.5000 0.0000 -0.8660
vn -0.7660 0.0000 -0.6428
vn -0.9397 0.0000 -0.3420
vn -1.0000 0.0000 -0.0000
vn -0.9397 0.0000 0.3420
vn -0.7660 0.0000 0.6428
vn -0.5000 0.0000 0.8660
vn -0.1736 0.0000 0.9848
vn 0.1736 0.0000 0.9848
vn 0.5000 0.0000 0.8660
vn 0.7660 0.0000 0.6428
vn 0.9397 0.0000 0.3420
vn 0.7660 -0.0000 -0.6428
vn 0.5000 -0.0000 -0.8660
vn 0.1736 -0.0000 -0.9848
vn -0.1736 -0.0000 -0.9848
vn -0.9397 -0.0000 -0.3420
vn -1.0000 -0.0000 -0.0000
vn 0.9396 0.0000 -0.3424
vn 1.0000 0.0000 -0.0004
vn 0.1765 0.0000 -0.9843
vn -0.1709 0.0000 -0.9853
vn -0.9393 -0.0000 -0.3430
vn -1.0000 -0.0000 0.0024
vn -0.9385 0.0000 0.3453
vn -0.7654 0.0000 0.6436
vn -0.4991 0.0000 0.8665
vn 0.1726 0.0000 0.9850
vn 0.4991 0.0000 0.8665
vn 0.0000 -1.0000 -0.0000
vn -0.0023 1.0000 0.0031
vn 0.0000 1.0000 -0.0000
vn -0.0127 0.9999 0.0056
vn -0.0496 0.9894 0.1362
vn -0.0204 0.9996 -0.0214
vn -0.0116 0.9999 -0.0065
vn 0.0462 0.9986 0.0266
vn -0.0393 0.9991 -0.0142
vn 0.1539 0.9841 -0.0889
vn 0.0054 0.9998 -0.0209
vn 0.0182 0.9986 -0.0501
vn 0.0053 0.9995 -0.0298
vn 0.0000 0.9986 -0.0533
vn -0.0019 1.0000 -0.0090
vn 0.0019 1.0000 0.0016
vn 0.0189 0.9998 0.0033
# 52 vertex normals

vt 0.7500 0.0000 1.0000
vt 0.8056 0.0000 1.0000
vt 0.8056 0.2000 1.0000
vt 0.7500 0.2000 1.0000
vt 0.8611 0.0000 1.0000
vt 0.8611 0.2000 1.0000
vt 0.9167 0.0000 1.0000
vt 0.9167 0.2000 1.0000
vt 0.9722 0.0000 1.0000
vt 0.9722 0.2000 1.0000
vt 1.0278 0.0000 1.0000
vt 1.0278 0.2000 1.0000
vt 0.0278 0.0000 1.0000
vt 0.0833 0.0000 1.0000
vt 0.0833 0.2000 1.0000
vt 0.0278 0.2000 1.0000
vt 0.1389 0.0000 1.0000
vt 0.1389 0.2000 1.0000
vt 0.1944 0.0000 1.0000
vt 0.1944 0.2000 1.0000
vt 0.2500 0.0000 1.0000
vt 0.2500 0.2000 1.0000
vt 0.3056 0.0000 1.0000
vt 0.3056 0.2000 1.0000
vt 0.3611 0.0000 1.0000
vt 0.3611 0.2000 1.0000
vt 0.4167 0.0000 1.0000
vt 0.4167 0.2000 1.0000
vt 0.4722 0.0000 1.0000
vt 0.4722 0.2000 1.0000
vt 0.5278 0.0000 1.0000
vt 0.5278 0.2000 1.0000
vt 0.5833 0.0000 1.0000
vt 0.5833 0.2000 1.0000
vt 0.6389 0.0000 1.0000
vt 0.6389 0.2000 1.0000
vt 0.6944 0.0000 1.0000
vt 0.6944 0.2000 1.0000
vt 0.8056 0.4000 1.0000
vt 0.7500 0.4000 1.0000
vt 0.8611 0.4000 1.0000
vt 0.9167 0.4000 1.0000
vt 0.9722 0.4000 1.0000
vt 1.0278 0.4000 1.0000
vt 0.0833 0.4000 1.0000
vt 0.0278 0.4000 1.0000
vt 0.1389 0.4000 1.0000
vt 0.1944 0.4000 1.0000
vt 0.2500 0.4000 1.0000
vt 0.3056 0.4000 1.0000
vt 0.3611 0.4000 1.0000
vt 0.4167 0.4000 1.0000
vt 0.4722 0.4000 1.0000
vt 0.5278 0.4000 1.0000
vt 0.5833 0.4000 1.0000
vt 0.6389 0.4000 1.0000
vt 0.6944 0.4000 1.0000
vt 0.8056 0.6000 1.0000
vt 0.7500 0.6000 1.0000
vt 0.8611 0.6000 1.0000
vt 0.9167 0.6000 1.0000
vt 0.9722 0.6000 1.0000
vt 1.0278 0.6000 1.0000
vt 0.0833 0.6000 1.0000
vt 0.0278 0.6000 1.0000
vt 0.1389 0.6000 1.0000
vt 0.1944 0.6000 1.0000
vt 0.2500 0.6000 1.0000
vt 0.3056 0.6000 1.0000
vt 0.3611 0.6000 1.0000
vt 0.4167 0.6000 1.0000
vt 0.4722 0.6000 1.0000
vt 0.5278 0.6000 1.0000
vt 0.5833 0.6000 1.0000
vt 0.6389 0.6000 1.0000
vt 0.6944 0.6000 1.0000
vt 0.8056 0.8000 1.0000
vt 0.7500 0.8000 1.0000
vt 0.8611 0.8000 1.0000
vt 0.9167 0.8000 1.0000
vt 0.9722 0.8000 1.0000
vt 1.0278 0.8000 1.0000
vt 0.0833 0.8000 1.0000
vt 0.0278 0.8000 1.0000
vt 0.1389 0.8000 1.0000
vt 0.1944 0.8000 1.0000
vt 0.2500 0.8000 1.0000
vt 0.3056 0.8000 1.0000
vt 0.3611 0.8000 1.0000
vt 0.4167 0.8000 1.0000
vt 0.4722 0.8000 1.0000
vt 0.5278 0.8000 1.0000
vt 0.5833 0.8000 1.0000
vt 0.6389 0.8000 1.0000
vt 0.6944 0.8000 1.0000
vt 0.8056 1.0000 1.0000
vt 0.7500 1.0000 1.0000
vt 0.8611 1.0000 1.0000
vt 0.9167 1.0000 1.0000
vt 0.9722 1.0000 1.0000
vt 1.0278 1.0000 1.0000
vt 0.0833 1.0000 1.0000
vt 0.0278 1.0000 1.0000
vt 0.1389 1.0000 1.0000
vt 0.1944 1.0000 1.0000
vt 0.2500 1.0000 1.0000
vt 0.3056 1.0000 1.0000
vt 0.3611 1.0000 1.0000
vt 0.4167 1.0000 1.0000
vt 0.4722 1.0000 1.0000
vt 0.5278 1.0000 1.0000
vt 0.5833 1.0000 1.0000
vt 0.6389 1.0000 1.0000
vt 0.6944 1.0000 1.0000
vt 0.8214 0.8830 -0.2500
vt 0.9330 0.7500 -0.2500
vt 0.9924 0.5868 -0.2500
vt 0.9924 0.4132 -0.2500
vt 0.9330 0.2500 -0.2500
vt 0.8214 0.1170 -0.2500
vt 0.6710 0.0302 -0.2500
vt 0.5000 0.0000 -0.2500
vt 0.3290 0.0302 -0.2500
vt 0.1786 0.1170 -0.2500
vt 0.0670 0.2500 -0.2500
vt 0.0076 0.4132 -0.2500
vt 0.0076 0.5868 -0.2500
vt 0.0670 0.7500 -0.2500
vt 0.1786 0.8830 -0.2500
vt 0.3290 0.9698 -0.2500
vt 0.5000 1.0000 -0.2500
vt 0.6710 0.9698 -0.2500
vt 0.3290 0.9698 0.2500
vt 0.1786 0.8830 0.2500
vt 0.0670 0.7500 0.2500
vt 0.0076 0.5868 0.2500
vt 0.0076 0.4132 0.2500
vt 0.0670 0.2500 0.2500
vt 0.1786 0.1170 0.2500
vt 0.3290 0.0302 0.2500
vt 0.5000 0.0000 0.2500
vt 0.6710 0.0302 0.2500
vt 0.8214 0.1170 0.2500
vt 0.9330 0.2500 0.2500
vt 0.9924 0.4132 0.2500
vt 0.9924 0.5868 0.2500
vt 0.9330 0.7500 0.2500
vt 0.8214 0.8830 0.2500
vt 0.6710 0.9698 0.2500
vt 0.5000 1.0000 0.2500
# 150 texture coords

g Cylinder001
usemtl Material__25
s 8
f 1/1/1 2/2/2 3/3/2 
f 3/3/2 4/4/1 1/1/1 
f 2/2/2 5/5/3 6/6/3 
f 6/6/3 3/3/2 2/2/2 
f 5/5/3 7/7/4 8/8/4 
f 8/8/4 6/6/3 5/5/3 
f 7/7/4 9/9/5 10/10/5 
f 10/10/5 8/8/4 7/7/4 
f 9/9/5 11/11/6 12/12/6 
f 12/12/6 10/10/5 9/9/5 
f 11/13/6 13/14/7 14/15/7 
f 14/15/7 12/16/6 11/13/6 
f 13/14/7 15/17/8 16/18/8 
f 16/18/8 14/15/7 13/14/7 
f 15/17/8 17/19/9 18/20/9 
f 18/20/9 16/18/8 15/17/8 
f 17/19/9 19/21/10 20/22/10 
f 20/22/10 18/20/9 17/19/9 
f 19/21/10 21/23/11 22/24/11 
f 22/24/11 20/22/10 19/21/10 
f 21/23/11 23/25/12 24/26/12 
f 24/26/12 22/24/11 21/23/11 
f 23/25/12 25/27/13 26/28/13 
f 26/28/13 24/26/12 23/25/12 
f 25/27/13 27/29/14 28/30/14 
f 28/30/14 26/28/13 25/27/13 
f 27/29/14 29/31/15 30/32/15 
f 30/32/15 28/30/14 27/29/14 
f 29/31/15 31/33/16 32/34/16 
f 32/34/16 30/32/15 29/31/15 
f 31/33/16 33/35/17 34/36/17 
f 34/36/17 32/34/16 31/33/16 
f 33/35/17 35/37/18 36/38/18 
f 36/38/18 34/36/17 33/35/17 
f 35/37/18 1/1/1 4/4/1 
f 4/4/1 36/38/18 35/37/18 
f 4/4/1 3/3/2 37/39/2 
f 37/39/2 38/40/1 4/4/1 
f 3/3/2 6/6/3 39/41/3 
f 39/41/3 37/39/2 3/3/2 
f 6/6/3 8/8/4 40/42/4 
f 40/42/4 39/41/3 6/6/3 
f 8/8/4 10/10/5 41/43/5 
f 41/43/5 40/42/4 8/8/4 
f 10/10/5 12/12/6 42/44/6 
f 42/44/6 41/43/5 10/10/5 
f 12/16/6 14/15/7 43/45/7 
f 43/45/7 42/46/6 12/16/6 
f 14/15/7 16/18/8 44/47/8 
f 44/47/8 43/45/7 14/15/7 
f 16/18/8 18/20/9 45/48/9 
f 45/48/9 44/47/8 16/18/8 
f 18/20/9 20/22/10 46/49/10 
f 46/49/10 45/48/9 18/20/9 
f 20/22/10 22/24/11 47/50/11 
f 47/50/11 46/49/10 20/22/10 
f 22/24/11 24/26/12 48/51/12 
f 48/51/12 47/50/11 22/24/11 
f 24/26/12 26/28/13 49/52/13 
f 49/52/13 48/51/12 24/26/12 
f 26/28/13 28/30/14 50/53/14 
f 50/53/14 49/52/13 26/28/13 
f 28/30/14 30/32/15 51/54/15 
f 51/54/15 50/53/14 28/30/14 
f 30/32/15 32/34/16 52/55/16 
f 52/55/16 51/54/15 30/32/15 
f 32/34/16 34/36/17 53/56/17 
f 53/56/17 52/55/16 32/34/16 
f 34/36/17 36/38/18 54/57/18 
f 54/57/18 53/56/17 34/36/17 
f 36/38/18 4/4/1 38/40/1 
f 38/40/1 54/57/18 36/38/18 
f 38/40/1 37/39/2 55/58/2 
f 55/58/2 56/59/1 38/40/1 
f 37/39/2 39/41/3 57/60/19 
f 57/60/19 55/58/2 37/39/2 
f 39/41/3 40/42/4 58/61/20 
f 58/61/20 57/60/19 39/41/3 
f 40/42/4 41/43/5 59/62/21 
f 59/62/21 58/61/20 40/42/4 
f 41/43/5 42/44/6 60/63/22 
f 60/63/22 59/62/21 41/43/5 
f 42/46/6 43/45/7 61/64/7 
f 61/64/7 60/65/22 42/46/6 
f 43/45/7 44/47/8 62/66/8 
f 62/66/8 61/64/7 43/45/7 
f 44/47/8 45/48/9 63/67/9 
f 63/67/9 62/66/8 44/47/8 
f 45/48/9 46/49/10 64/68/10 
f 64/68/10 63/67/9 45/48/9 
f 46/49/10 47/50/11 65/69/11 
f 65/69/11 64/68/10 46/49/10 
f 47/50/11 48/51/12 66/70/12 
f 66/70/12 65/69/11 47/50/11 
f 48/51/12 49/52/13 67/71/13 
f 67/71/13 66/70/12 48/51/12 
f 49/52/13 50/53/14 68/72/14 
f 68/72/14 67/71/13 49/52/13 
f 50/53/14 51/54/15 69/73/15 
f 69/73/15 68/72/14 50/53/14 
f 51/54/15 52/55/16 70/74/16 
f 70/74/16 69/73/15 51/54/15 
f 52/55/16 53/56/17 71/75/17 
f 71/75/17 70/74/16 52/55/16 
f 53/56/17 54/57/18 72/76/18 
f 72/76/18 71/75/17 53/56/17 
f 54/57/18 38/40/1 56/59/1 
f 56/59/1 72/76/18 54/57/18 
f 56/59/1 55/58/2 73/77/2 
f 73/77/2 74/78/1 56/59/1 
f 55/58/2 57/60/19 75/79/3 
f 75/79/3 73/77/2 55/58/2 
f 57/60/19 58/61/20 76/80/20 
f 76/80/20 75/79/3 57/60/19 
f 58/61/20 59/62/21 77/81/5 
f 77/81/5 76/80/20 58/61/20 
f 59/62/21 60/63/22 78/82/22 
f 78/82/22 77/81/5 59/62/21 
f 60/65/22 61/64/7 79/83/7 
f 79/83/7 78/84/22 60/65/22 
f 61/64/7 62/66/8 80/85/8 
f 80/85/8 79/83/7 61/64/7 
f 62/66/8 63/67/9 81/86/23 
f 81/86/23 80/85/8 62/66/8 
f 63/67/9 64/68/10 82/87/24 
f 82/87/24 81/86/23 63/67/9 
f 64/68/10 65/69/11 83/88/11 
f 83/88/11 82/87/24 64/68/10 
f 65/69/11 66/70/12 84/89/12 
f 84/89/12 83/88/11 65/69/11 
f 66/70/12 67/71/13 85/90/13 
f 85/90/13 84/89/12 66/70/12 
f 67/71/13 68/72/14 86/91/14 
f 86/91/14 85/90/13 67/71/13 
f 68/72/14 69/73/15 87/92/15 
f 87/92/15 86/91/14 68/72/14 
f 69/73/15 70/74/16 88/93/16 
f 88/93/16 87/92/15 69/73/15 
f 70/74/16 71/75/17 89/94/17 
f 89/94/17 88/93/16 70/74/16 
f 71/75/17 72/76/18 90/95/18 
f 90/95/18 89/94/17 71/75/17 
f 72/76/18 56/59/1 74/78/1 
f 74/78/1 90/95/18 72/76/18 
f 74/78/1 73/77/2 91/96/25 
f 91/96/25 92/97/26 74/78/1 
f 73/77/2 75/79/3 93/98/3 
f 93/98/3 91/96/25 73/77/2 
f 75/79/3 76/80/20 94/99/4 
f 94/99/4 93/98/3 75/79/3 
f 76/80/20 77/81/5 95/100/27 
f 95/100/27 94/99/4 76/80/20 
f 77/81/5 78/82/22 96/101/28 
f 96/101/28 95/100/27 77/81/5 
f 78/84/22 79/83/7 97/102/7 
f 97/102/7 96/103/28 78/84/22 
f 79/83/7 80/85/8 98/104/8 
f 98/104/8 97/102/7 79/83/7 
f 80/85/8 81/86/23 99/105/29 
f 99/105/29 98/104/8 80/85/8 
f 81/86/23 82/87/24 100/106/30 
f 100/106/30 99/105/29 81/86/23 
f 82/87/24 83/88/11 101/107/31 
f 101/107/31 100/106/30 82/87/24 
f 83/88/11 84/89/12 102/108/32 
f 102/108/32 101/107/31 83/88/11 
f 84/89/12 85/90/13 103/109/33 
f 103/109/33 102/108/32 84/89/12 
f 85/90/13 86/91/14 104/110/14 
f 104/110/14 103/109/33 85/90/13 
f 86/91/14 87/92/15 105/111/34 
f 105/111/34 104/110/14 86/91/14 
f 87/92/15 88/93/16 106/112/35 
f 106/112/35 105/111/34 87/92/15 
f 88/93/16 89/94/17 107/113/17 
f 107/113/17 106/112/35 88/93/16 
f 89/94/17 90/95/18 108/114/18 
f 108/114/18 107/113/17 89/94/17 
f 90/95/18 74/78/1 92/97/26 
f 92/97/26 108/114/18 90/95/18 
s 1
f 33/115/36 31/116/36 29/117/36 
f 29/117/36 27/118/36 25/119/36 
f 25/119/36 23/120/36 21/121/36 
f 29/117/36 25/119/36 21/121/36 
f 21/121/36 19/122/36 17/123/36 
f 17/123/36 15/124/36 13/125/36 
f 21/121/36 17/123/36 13/125/36 
f 13/125/36 11/126/36 9/127/36 
f 9/127/36 7/128/36 5/129/36 
f 13/125/36 9/127/36 5/129/36 
f 21/121/36 13/125/36 5/129/36 
f 29/117/36 21/121/36 5/129/36 
f 5/129/36 2/130/36 1/131/36 
f 29/117/36 5/129/36 1/131/36 
f 33/115/36 29/117/36 1/131/36 
f 35/132/36 33/115/36 1/131/36 
f 91/133/37 93/134/38 94/135/39 
f 94/135/39 95/136/40 96/137/41 
f 96/137/41 97/138/38 98/139/42 
f 94/135/39 96/137/41 98/139/42 
f 98/139/42 99/140/43 100/141/44 
f 100/141/44 101/142/45 102/143/46 
f 98/139/42 100/141/44 102/143/46 
f 102/143/46 103/144/47 104/145/48 
f 104/145/48 105/146/49 106/147/50 
f 102/143/46 104/145/48 106/147/50 
f 98/139/42 102/143/46 106/147/50 
f 94/135/39 98/139/42 106/147/50 
f 106/147/50 107/148/38 108/149/51 
f 94/135/39 106/147/50 108/149/51 
f 91/133/37 94/135/39 108/149/51 
f 92/150/52 91/133/37 108/149/51 
# 212 faces

