# 3ds Max Wavefront OBJ Exporter v0.97b - (c)2007 guruware
# File Created: 26.11.2016 13:41:36

mtllib wheel.mtl

#
# object moskvitch
#

v  0.5111 2.9127 -0.0020
v  0.5071 2.6934 -1.1050
v  -0.4263 2.6999 -1.1029
v  -0.4223 2.9193 0.0001
v  0.5007 2.0686 -2.0400
v  -0.4328 2.0751 -2.0379
v  0.4927 1.1336 -2.6647
v  -0.4408 1.1402 -2.6626
v  0.4844 0.0307 -2.8841
v  -0.4490 0.0373 -2.8820
v  0.4772 -1.0722 -2.6646
v  -0.4563 -1.0656 -2.6626
v  0.4720 -2.0071 -2.0399
v  -0.4615 -2.0006 -2.0378
v  0.4696 -2.6319 -1.1049
v  -0.4638 -2.6253 -1.1028
v  0.4705 -2.8513 -0.0019
v  -0.4629 -2.8447 0.0002
v  0.4745 -2.6319 1.1010
v  -0.4589 -2.6253 1.1031
v  0.4810 -2.0071 2.0360
v  -0.4525 -2.0006 2.0380
v  0.4890 -1.0722 2.6607
v  -0.4445 -1.0656 2.6628
v  0.4973 0.0307 2.8800
v  -0.4362 0.0373 2.8821
v  0.5045 1.1336 2.6607
v  -0.4289 1.1402 2.6628
v  0.5097 2.0686 2.0359
v  -0.4237 2.0751 2.0380
v  0.5121 2.6934 1.1009
v  -0.4214 2.6999 1.1030
v  0.6610 0.0295 -0.0023
v  -0.5797 2.2809 -0.9285
v  -0.5763 2.4656 0.0004
v  -0.5852 1.7547 -1.7160
v  -0.5919 0.9672 -2.2422
v  -0.5988 0.0384 -2.4269
v  -0.6050 -0.8905 -2.2421
v  -0.6093 -1.6780 -1.7159
v  -0.6113 -2.2042 -0.9284
v  -0.6105 -2.3889 0.0005
v  -0.6072 -2.2042 0.9294
v  -0.6017 -1.6780 1.7168
v  -0.5950 -0.8905 2.2430
v  -0.5880 0.0384 2.4277
v  -0.5819 0.9672 2.2429
v  -0.5775 1.7547 1.7167
v  -0.5756 2.2809 0.9293
v  -0.6101 1.5852 -0.6402
v  -0.6077 1.7127 0.0005
v  -0.6138 1.2223 -1.1833
v  -0.6185 0.6792 -1.5463
v  -0.6232 0.0385 -1.6737
v  -0.6275 -0.6021 -1.5463
v  -0.6305 -1.1452 -1.1833
v  -0.6318 -1.5081 -0.6402
v  -0.6313 -1.6356 0.0005
v  -0.6290 -1.5081 0.6411
v  -0.6252 -1.1452 1.1843
v  -0.6206 -0.6021 1.5472
v  -0.6158 0.0385 1.6746
v  -0.6116 0.6792 1.5472
v  -0.6086 1.2223 1.1843
v  -0.6072 1.5852 0.6411
v  -0.2477 1.1576 -0.4649
v  -0.2460 1.2500 -0.0003
v  -0.2504 0.8944 -0.8588
v  -0.2538 0.5006 -1.1220
v  -0.2572 0.0360 -1.2144
v  -0.2603 -0.4286 -1.1220
v  -0.2625 -0.8225 -0.8588
v  -0.2635 -1.0857 -0.4649
v  -0.2631 -1.1781 -0.0003
v  -0.2614 -1.0857 0.4643
v  -0.2587 -0.8225 0.8582
v  -0.2553 -0.4286 1.1213
v  -0.2518 0.0360 1.2138
v  -0.2488 0.5006 1.1213
v  -0.2466 0.8944 0.8582
v  -0.2456 1.1576 0.4643
v  -0.6376 0.9260 -0.3671
v  -0.6363 0.9991 0.0005
v  -0.6398 0.7178 -0.6786
v  -0.6424 0.4062 -0.8868
v  -0.6452 0.0387 -0.9599
v  -0.6476 -0.3288 -0.8868
v  -0.6493 -0.6404 -0.6786
v  -0.6501 -0.8486 -0.3670
v  -0.6498 -0.9217 0.0006
v  -0.6485 -0.8486 0.3681
v  -0.6463 -0.6404 0.6797
v  -0.6436 -0.3288 0.8879
v  -0.6409 0.0387 0.9610
v  -0.6385 0.4062 0.8879
v  -0.6367 0.7178 0.6796
v  -0.6360 0.9260 0.3680
v  -0.7802 0.0397 0.0009
# 98 vertices

vn 0.6514 0.7587 -0.0014
vn 0.6503 0.7006 -0.2935
vn -0.5484 0.7736 -0.3176
vn -0.5472 0.8370 0.0012
vn 0.6486 0.5352 -0.5412
vn -0.5502 0.5930 -0.5879
vn 0.6465 0.2875 -0.7066
vn -0.5526 0.3227 -0.7685
vn 0.6443 -0.0046 -0.7647
vn -0.5549 0.0039 -0.8319
vn 0.6424 -0.2966 -0.7066
vn -0.5570 -0.3149 -0.7685
vn 0.6410 -0.5443 -0.5412
vn -0.5585 -0.5852 -0.5879
vn 0.6404 -0.7097 -0.2935
vn -0.5592 -0.7658 -0.3176
vn 0.6406 -0.7678 -0.0014
vn -0.5590 -0.8292 0.0012
vn 0.6417 -0.7097 0.2907
vn -0.5578 -0.7658 0.3200
vn 0.6434 -0.5443 0.5384
vn -0.5559 -0.5852 0.5903
vn 0.6455 -0.2966 0.7038
vn -0.5536 -0.3149 0.7709
vn 0.6477 -0.0046 0.7619
vn -0.5512 0.0039 0.8343
vn 0.6496 0.2875 0.7038
vn -0.5491 0.3227 0.7709
vn 0.6510 0.5352 0.5384
vn -0.5476 0.5930 0.5903
vn 0.6516 0.7006 0.2907
vn -0.5470 0.7736 0.3200
vn 1.0000 -0.0070 -0.0022
vn -0.9800 0.1857 -0.0719
vn -0.9797 0.2005 0.0022
vn -0.9804 0.1438 -0.1347
vn -0.9809 0.0810 -0.1766
vn -0.9815 0.0069 -0.1914
vn -0.9820 -0.0672 -0.1766
vn -0.9823 -0.1300 -0.1347
vn -0.9825 -0.1719 -0.0719
vn -0.9824 -0.1867 0.0022
vn -0.9822 -0.1719 0.0763
vn -0.9817 -0.1300 0.1391
vn -0.9812 -0.0672 0.1810
vn -0.9806 0.0069 0.1958
vn -0.9802 0.0810 0.1810
vn -0.9798 0.1438 0.1391
vn -0.9796 0.1857 0.0763
vn -0.9992 0.0390 -0.0111
vn -0.9991 0.0416 0.0022
vn -0.9993 0.0315 -0.0223
vn -0.9994 0.0203 -0.0298
vn -0.9994 0.0070 -0.0324
vn -0.9995 -0.0063 -0.0298
vn -0.9996 -0.0175 -0.0223
vn -0.9996 -0.0250 -0.0111
vn -0.9996 -0.0276 0.0022
vn -0.9996 -0.0250 0.0155
vn -0.9995 -0.0175 0.0267
vn -0.9994 -0.0063 0.0342
vn -0.9993 0.0070 0.0368
vn -0.9992 0.0203 0.0342
vn -0.9991 0.0315 0.0267
vn -0.9991 0.0390 0.0155
vn -0.7869 -0.5687 0.2396
vn -0.7878 -0.6160 0.0018
vn -0.7855 -0.4340 0.4412
vn -0.7838 -0.2323 0.5759
vn -0.7820 0.0055 0.6232
vn -0.7804 0.2433 0.5759
vn -0.7793 0.4450 0.4412
vn -0.7788 0.5797 0.2395
vn -0.7790 0.6270 0.0017
vn -0.7799 0.5797 -0.2361
vn -0.7813 0.4450 -0.4378
vn -0.7830 0.2433 -0.5725
vn -0.7848 0.0055 -0.6198
vn -0.7863 -0.2323 -0.5725
vn -0.7796 -0.1172 -0.6152
vn -0.7875 -0.4340 -0.4377
vn -0.7880 -0.5687 -0.2360
vn -0.5419 0.7774 -0.3192
vn -0.8170 0.5341 -0.2170
vn -0.8162 0.5777 0.0018
vn -0.5408 0.8412 0.0012
vn -0.5438 0.5959 -0.5909
vn -0.8183 0.4102 -0.4026
vn -0.5461 0.3242 -0.7724
vn -0.8199 0.2246 -0.5265
vn -0.5485 0.0039 -0.8362
vn -0.8215 0.0058 -0.5701
vn -0.5507 -0.3165 -0.7724
vn -0.8230 -0.2130 -0.5265
vn -0.5522 -0.5882 -0.5909
vn -0.8240 -0.3986 -0.4026
vn -0.5528 -0.7697 -0.3192
vn -0.8245 -0.5225 -0.2170
vn -0.5526 -0.8335 0.0012
vn -0.8243 -0.5661 0.0018
vn -0.5514 -0.7697 0.3216
vn -0.8235 -0.5225 0.2206
vn -0.5495 -0.5882 0.5933
vn -0.8222 -0.3986 0.4062
vn -0.5472 -0.3165 0.7748
vn -0.8206 -0.2130 0.5301
vn -0.5448 0.0039 0.8386
vn -0.8190 0.0058 0.5737
vn -0.5427 0.3242 0.7748
vn -0.8176 0.2246 0.5301
vn -0.5412 0.5959 0.5933
vn -0.8165 0.4102 0.4062
vn -0.5405 0.7774 0.3216
vn -0.8161 0.5341 0.2206
vn -1.0000 0.0070 0.0022
vn 1.0000 0.0000 0.0000
# 116 vertex normals

vt 0.5968 0.6158 0.0000
vt 0.5968 0.6485 0.0000
vt 0.5696 0.6485 0.0000
vt 0.5696 0.6158 0.0000
vt 0.5968 0.6812 0.0000
vt 0.5696 0.6812 0.0000
vt 0.5968 0.7139 0.0000
vt 0.5696 0.7139 0.0000
vt 0.5968 0.7466 0.0000
vt 0.5696 0.7466 0.0000
vt 0.5968 0.7793 0.0000
vt 0.5696 0.7793 0.0000
vt 0.5968 0.8120 0.0000
vt 0.5696 0.8120 0.0000
vt 0.5968 0.8447 0.0000
vt 0.5696 0.8447 0.0000
vt 0.5968 0.8774 0.0000
vt 0.5696 0.8774 0.0000
vt 0.5968 0.9101 0.0000
vt 0.5696 0.9101 0.0000
vt 0.5968 0.9428 0.0000
vt 0.5696 0.9428 0.0000
vt 0.5968 0.9755 0.0000
vt 0.5696 0.9755 0.0000
vt 0.5968 0.4522 0.0000
vt 0.5968 0.4849 0.0000
vt 0.5696 0.4849 0.0000
vt 0.5696 0.4522 0.0000
vt 0.5968 0.5176 0.0000
vt 0.5696 0.5176 0.0000
vt 0.5968 0.5503 0.0000
vt 0.5696 0.5503 0.0000
vt 0.5968 0.5831 0.0000
vt 0.5696 0.5831 0.0000
vt 0.9377 0.3644 0.0000
vt 0.9378 0.3920 0.0000
vt 0.8684 0.3785 0.0000
vt 0.9273 0.4175 0.0000
vt 0.9079 0.4371 0.0000
vt 0.8825 0.4478 0.0000
vt 0.8549 0.4479 0.0000
vt 0.8294 0.4374 0.0000
vt 0.8098 0.4180 0.0000
vt 0.7991 0.3926 0.0000
vt 0.7990 0.3650 0.0000
vt 0.8095 0.3395 0.0000
vt 0.8289 0.3199 0.0000
vt 0.8543 0.3092 0.0000
vt 0.8819 0.3091 0.0000
vt 0.9074 0.3196 0.0000
vt 0.9270 0.3390 0.0000
vt 0.8888 0.0058 0.0000
vt 0.9195 0.0184 0.0000
vt 0.9121 0.0295 0.0000
vt 0.8863 0.0190 0.0000
vt 0.9430 0.0417 0.0000
vt 0.9319 0.0492 0.0000
vt 0.9558 0.0722 0.0000
vt 0.9427 0.0749 0.0000
vt 0.9559 0.1053 0.0000
vt 0.9428 0.1028 0.0000
vt 0.9434 0.1360 0.0000
vt 0.9322 0.1286 0.0000
vt 0.9200 0.1595 0.0000
vt 0.9126 0.1484 0.0000
vt 0.8895 0.1723 0.0000
vt 0.8868 0.1592 0.0000
vt 0.8564 0.1724 0.0000
vt 0.8590 0.1593 0.0000
vt 0.8258 0.1599 0.0000
vt 0.8332 0.1487 0.0000
vt 0.8023 0.1365 0.0000
vt 0.8134 0.1291 0.0000
vt 0.7895 0.1060 0.0000
vt 0.8026 0.1033 0.0000
vt 0.7893 0.0729 0.0000
vt 0.8025 0.0755 0.0000
vt 0.8019 0.0423 0.0000
vt 0.8130 0.0497 0.0000
vt 0.8252 0.0188 0.0000
vt 0.8327 0.0299 0.0000
vt 0.8557 0.0060 0.0000
vt 0.8584 0.0191 0.0000
vt 0.8998 0.0480 0.0000
vt 0.8820 0.0407 0.0000
vt 0.9135 0.0616 0.0000
vt 0.9209 0.0793 0.0000
vt 0.9210 0.0985 0.0000
vt 0.9137 0.1163 0.0000
vt 0.9002 0.1300 0.0000
vt 0.8824 0.1374 0.0000
vt 0.8632 0.1375 0.0000
vt 0.8454 0.1302 0.0000
vt 0.8317 0.1167 0.0000
vt 0.8243 0.0989 0.0000
vt 0.8242 0.0797 0.0000
vt 0.8315 0.0619 0.0000
vt 0.8451 0.0483 0.0000
vt 0.8628 0.0408 0.0000
vt 0.9232 0.1768 0.0000
vt 0.9228 0.1938 0.0000
vt 0.9092 0.1957 0.0000
vt 0.9044 0.1793 0.0000
vt 0.9419 0.1801 0.0000
vt 0.9364 0.1962 0.0000
vt 0.9587 0.1889 0.0000
vt 0.9486 0.2026 0.0000
vt 0.9721 0.2023 0.0000
vt 0.9583 0.2124 0.0000
vt 0.9808 0.2192 0.0000
vt 0.9646 0.2246 0.0000
vt 0.9840 0.2380 0.0000
vt 0.9670 0.2382 0.0000
vt 0.9814 0.2568 0.0000
vt 0.9651 0.2519 0.0000
vt 0.9732 0.2739 0.0000
vt 0.9591 0.2643 0.0000
vt 0.9603 0.2878 0.0000
vt 0.9497 0.2744 0.0000
vt 0.9437 0.2971 0.0000
vt 0.9377 0.2811 0.0000
vt 0.9251 0.3010 0.0000
vt 0.9242 0.2839 0.0000
vt 0.9062 0.2991 0.0000
vt 0.9105 0.2825 0.0000
vt 0.8888 0.2915 0.0000
vt 0.8979 0.2771 0.0000
vt 0.8744 0.2791 0.0000
vt 0.8875 0.2680 0.0000
vt 0.8872 0.1874 0.0000
vt 0.8967 0.2015 0.0000
vt 0.8866 0.2109 0.0000
vt 0.8732 0.2003 0.0000
vt 0.6586 0.8510 0.0000
vt 0.6546 0.8381 0.0000
vt 0.6646 0.8338 0.0000
vt 0.6712 0.8455 0.0000
vt 0.6451 0.8537 0.0000
vt 0.6439 0.8403 0.0000
vt 0.6313 0.8535 0.0000
vt 0.6330 0.8401 0.0000
vt 0.6429 0.7249 0.0000
vt 0.6422 0.7384 0.0000
vt 0.6313 0.7389 0.0000
vt 0.6292 0.7256 0.0000
vt 0.6565 0.7272 0.0000
vt 0.6529 0.7402 0.0000
vt 0.6693 0.7323 0.0000
vt 0.6630 0.7442 0.0000
vt 0.6808 0.7399 0.0000
vt 0.6721 0.7503 0.0000
vt 0.6903 0.7499 0.0000
vt 0.6796 0.7581 0.0000
vt 0.6975 0.7616 0.0000
vt 0.6853 0.7674 0.0000
vt 0.7021 0.7746 0.0000
vt 0.6889 0.7777 0.0000
vt 0.7038 0.7883 0.0000
vt 0.6903 0.7885 0.0000
vt 0.7025 0.8020 0.0000
vt 0.6893 0.7994 0.0000
vt 0.6984 0.8152 0.0000
vt 0.6861 0.8098 0.0000
vt 0.6916 0.8271 0.0000
vt 0.6807 0.8193 0.0000
vt 0.6824 0.8374 0.0000
vt 0.6734 0.8274 0.0000
vt 0.8817 0.5956 0.0000
vt 0.8972 0.5722 0.0000
vt 0.8919 0.5997 0.0000
vt 0.8740 0.5879 0.0000
vt 0.8697 0.5778 0.0000
vt 0.8697 0.5668 0.0000
vt 0.8738 0.5567 0.0000
vt 0.8815 0.5489 0.0000
vt 0.8916 0.5446 0.0000
vt 0.9026 0.5446 0.0000
vt 0.9127 0.5488 0.0000
vt 0.9205 0.5565 0.0000
vt 0.9248 0.5666 0.0000
vt 0.9248 0.5775 0.0000
vt 0.9206 0.5877 0.0000
vt 0.9129 0.5955 0.0000
vt 0.9028 0.5997 0.0000
# 184 texture coords

g moskvitch
usemtl moskvitch
s 1
f 1/1/1 2/2/2 3/3/3 
f 3/3/3 4/4/4 1/1/1 
f 2/2/2 5/5/5 6/6/6 
f 6/6/6 3/3/3 2/2/2 
f 5/5/5 7/7/7 8/8/8 
f 8/8/8 6/6/6 5/5/5 
f 7/7/7 9/9/9 10/10/10 
f 10/10/10 8/8/8 7/7/7 
f 9/9/9 11/11/11 12/12/12 
f 12/12/12 10/10/10 9/9/9 
f 11/11/11 13/13/13 14/14/14 
f 14/14/14 12/12/12 11/11/11 
f 13/13/13 15/15/15 16/16/16 
f 16/16/16 14/14/14 13/13/13 
f 15/15/15 17/17/17 18/18/18 
f 18/18/18 16/16/16 15/15/15 
f 17/17/17 19/19/19 20/20/20 
f 20/20/20 18/18/18 17/17/17 
f 19/19/19 21/21/21 22/22/22 
f 22/22/22 20/20/20 19/19/19 
f 21/21/21 23/23/23 24/24/24 
f 24/24/24 22/22/22 21/21/21 
f 23/25/23 25/26/25 26/27/26 
f 26/27/26 24/28/24 23/25/23 
f 25/26/25 27/29/27 28/30/28 
f 28/30/28 26/27/26 25/26/25 
f 27/29/27 29/31/29 30/32/30 
f 30/32/30 28/30/28 27/29/27 
f 29/31/29 31/33/31 32/34/32 
f 32/34/32 30/32/30 29/31/29 
f 31/33/31 1/1/1 4/4/4 
f 4/4/4 32/34/32 31/33/31 
f 2/35/2 1/36/1 33/37/33 
f 1/36/1 31/38/31 33/37/33 
f 31/38/31 29/39/29 33/37/33 
f 29/39/29 27/40/27 33/37/33 
f 27/40/27 25/41/25 33/37/33 
f 25/41/25 23/42/23 33/37/33 
f 23/42/23 21/43/21 33/37/33 
f 21/43/21 19/44/19 33/37/33 
f 19/44/19 17/45/17 33/37/33 
f 17/45/17 15/46/15 33/37/33 
f 15/46/15 13/47/13 33/37/33 
f 13/47/13 11/48/11 33/37/33 
f 11/48/11 9/49/9 33/37/33 
f 9/49/9 7/50/7 33/37/33 
f 7/50/7 5/51/5 33/37/33 
f 5/51/5 2/35/2 33/37/33 
f 4/52/4 3/53/3 34/54/34 
f 34/54/34 35/55/35 4/52/4 
f 3/53/3 6/56/6 36/57/36 
f 36/57/36 34/54/34 3/53/3 
f 6/56/6 8/58/8 37/59/37 
f 37/59/37 36/57/36 6/56/6 
f 8/58/8 10/60/10 38/61/38 
f 38/61/38 37/59/37 8/58/8 
f 10/60/10 12/62/12 39/63/39 
f 39/63/39 38/61/38 10/60/10 
f 12/62/12 14/64/14 40/65/40 
f 40/65/40 39/63/39 12/62/12 
f 14/64/14 16/66/16 41/67/41 
f 41/67/41 40/65/40 14/64/14 
f 16/66/16 18/68/18 42/69/42 
f 42/69/42 41/67/41 16/66/16 
f 18/68/18 20/70/20 43/71/43 
f 43/71/43 42/69/42 18/68/18 
f 20/70/20 22/72/22 44/73/44 
f 44/73/44 43/71/43 20/70/20 
f 22/72/22 24/74/24 45/75/45 
f 45/75/45 44/73/44 22/72/22 
f 24/74/24 26/76/26 46/77/46 
f 46/77/46 45/75/45 24/74/24 
f 26/76/26 28/78/28 47/79/47 
f 47/79/47 46/77/46 26/76/26 
f 28/78/28 30/80/30 48/81/48 
f 48/81/48 47/79/47 28/78/28 
f 30/80/30 32/82/32 49/83/49 
f 49/83/49 48/81/48 30/80/30 
f 32/82/32 4/52/4 35/55/35 
f 35/55/35 49/83/49 32/82/32 
f 35/55/35 34/54/34 50/84/50 
f 50/84/50 51/85/51 35/55/35 
f 34/54/34 36/57/36 52/86/52 
f 52/86/52 50/84/50 34/54/34 
f 36/57/36 37/59/37 53/87/53 
f 53/87/53 52/86/52 36/57/36 
f 37/59/37 38/61/38 54/88/54 
f 54/88/54 53/87/53 37/59/37 
f 38/61/38 39/63/39 55/89/55 
f 55/89/55 54/88/54 38/61/38 
f 39/63/39 40/65/40 56/90/56 
f 56/90/56 55/89/55 39/63/39 
f 40/65/40 41/67/41 57/91/57 
f 57/91/57 56/90/56 40/65/40 
f 41/67/41 42/69/42 58/92/58 
f 58/92/58 57/91/57 41/67/41 
f 42/69/42 43/71/43 59/93/59 
f 59/93/59 58/92/58 42/69/42 
f 43/71/43 44/73/44 60/94/60 
f 60/94/60 59/93/59 43/71/43 
f 44/73/44 45/75/45 61/95/61 
f 61/95/61 60/94/60 44/73/44 
f 45/75/45 46/77/46 62/96/62 
f 62/96/62 61/95/61 45/75/45 
f 46/77/46 47/79/47 63/97/63 
f 63/97/63 62/96/62 46/77/46 
f 47/79/47 48/81/48 64/98/64 
f 64/98/64 63/97/63 47/79/47 
f 48/81/48 49/83/49 65/99/65 
f 65/99/65 64/98/64 48/81/48 
f 49/83/49 35/55/35 51/85/51 
f 51/85/51 65/99/65 49/83/49 
s 2
f 50/100/66 66/101/66 67/102/67 
f 67/102/67 51/103/67 50/100/66 
f 52/104/68 68/105/68 66/101/66 
f 66/101/66 50/100/66 52/104/68 
f 53/106/69 69/107/69 68/105/68 
f 68/105/68 52/104/68 53/106/69 
f 54/108/70 70/109/70 69/107/69 
f 69/107/69 53/106/69 54/108/70 
f 55/110/71 71/111/71 70/109/70 
f 70/109/70 54/108/70 55/110/71 
f 56/112/72 72/113/72 71/111/71 
f 71/111/71 55/110/71 56/112/72 
f 57/114/73 73/115/73 72/113/72 
f 72/113/72 56/112/72 57/114/73 
f 58/116/74 74/117/74 73/115/73 
f 73/115/73 57/114/73 58/116/74 
f 59/118/75 75/119/75 74/117/74 
f 74/117/74 58/116/74 59/118/75 
f 60/120/76 76/121/76 75/119/75 
f 75/119/75 59/118/75 60/120/76 
f 61/122/77 77/123/77 76/121/76 
f 76/121/76 60/120/76 61/122/77 
f 62/124/78 78/125/78 77/123/77 
f 77/123/77 61/122/77 62/124/78 
f 63/126/79 79/127/79 78/125/78 
f 78/125/78 62/124/78 63/126/80 
f 64/128/81 80/129/81 79/127/79 
f 79/127/79 63/126/79 64/128/81 
f 65/130/82 81/131/82 80/132/81 
f 80/132/81 64/133/81 65/130/82 
f 65/130/82 51/103/67 67/102/67 
f 67/102/67 81/131/82 65/130/82 
s 1
f 66/134/83 82/135/84 83/136/85 
f 83/136/85 67/137/86 66/134/83 
f 68/138/87 84/139/88 82/135/84 
f 82/135/84 66/134/83 68/138/87 
f 69/140/89 85/141/90 84/139/88 
f 84/139/88 68/138/87 69/140/89 
f 70/142/91 86/143/92 85/144/90 
f 85/144/90 69/145/89 70/142/91 
f 71/146/93 87/147/94 86/143/92 
f 86/143/92 70/142/91 71/146/93 
f 72/148/95 88/149/96 87/147/94 
f 87/147/94 71/146/93 72/148/95 
f 73/150/97 89/151/98 88/149/96 
f 88/149/96 72/148/95 73/150/97 
f 74/152/99 90/153/100 89/151/98 
f 89/151/98 73/150/97 74/152/99 
f 75/154/101 91/155/102 90/153/100 
f 90/153/100 74/152/99 75/154/101 
f 76/156/103 92/157/104 91/155/102 
f 91/155/102 75/154/101 76/156/103 
f 77/158/105 93/159/106 92/157/104 
f 92/157/104 76/156/103 77/158/105 
f 78/160/107 94/161/108 93/159/106 
f 93/159/106 77/158/105 78/160/107 
f 79/162/109 95/163/110 94/161/108 
f 94/161/108 78/160/107 79/162/109 
f 80/164/111 96/165/112 95/163/110 
f 95/163/110 79/162/109 80/164/111 
f 81/166/113 97/167/114 96/165/112 
f 96/165/112 80/164/111 81/166/113 
f 81/166/113 67/137/86 83/136/85 
f 83/136/85 97/167/114 81/166/113 
f 82/168/84 98/169/115 83/170/85 
f 84/171/88 98/169/115 82/168/84 
f 85/172/90 98/169/115 84/171/88 
f 86/173/92 98/169/115 85/172/90 
f 87/174/94 98/169/115 86/173/92 
f 88/175/96 98/169/115 87/174/94 
f 89/176/98 98/169/115 88/175/96 
f 90/177/100 98/169/115 89/176/98 
f 91/178/102 98/169/115 90/177/100 
f 92/179/104 98/169/115 91/178/102 
f 93/180/106 98/169/115 92/179/104 
f 94/181/108 98/169/115 93/180/106 
f 95/182/110 98/169/115 94/181/108 
f 96/183/112 98/169/115 95/182/110 
f 97/184/114 98/169/115 96/183/112 
f 83/170/85 98/169/115 97/184/114 
s 2
f 63/126/80 62/124/116 63/126/116 
f 78/125/116 63/126/80 63/126/116 
# 194 faces

